<?xml version="1.0" encoding="UTF-8"?>
<svg width="101px" height="15px" viewBox="0 0 101 15" version="1.1" xmlns="http://www.w3.org/2000/svg" xmlns:xlink="http://www.w3.org/1999/xlink">
    <!-- Generator: Sketch 51.3 (57544) - http://www.bohemiancoding.com/sketch -->
    <title>Group 19</title>
    <desc>Created with Sketch.</desc>
    <defs>
        <polygon id="path-1" points="0 0.8061 10.1779 0.8061 10.1779 15 0 15"></polygon>
        <polygon id="path-3" points="0.3305 0.025 11.29 0.025 11.29 13.824 0.3305 13.824"></polygon>
    </defs>
    <g id="Page-1" stroke="none" stroke-width="1" fill="none" fill-rule="evenodd">
        <g id="Group-19" transform="translate(0.687172, -0.901882)">
            <g id="Group-3" transform="translate(0.000000, 0.194300)">
                <mask id="mask-2" fill="white">
                    <use xlink:href="#path-1"></use>
                </mask>
                <g id="Clip-2"></g>
                <path d="M2.9619,14.5391 C2.1939,14.2301 1.5449,13.7641 1.0149,13.1371 C0.4849,12.5101 0.1469,11.7391 -0.0001,10.8251 L2.9359,10.0871 C2.9999,10.8661 3.2539,11.4431 3.6959,11.8181 C4.1379,12.1931 4.7049,12.3811 5.3969,12.3811 C6.0179,12.3811 6.4809,12.2431 6.7849,11.9681 C7.0899,11.6921 7.2419,11.3381 7.2419,10.9041 C7.2419,10.5061 7.1249,10.1701 6.8909,9.8981 C6.6559,9.6251 6.3659,9.4041 6.0209,9.2341 C5.6749,9.0641 5.1909,8.8621 4.5699,8.6281 C3.7739,8.3351 3.1279,8.0541 2.6319,7.7841 C2.1369,7.5151 1.7139,7.1331 1.3619,6.6371 C1.0109,6.1431 0.8349,5.5051 0.8349,4.7261 C0.8349,3.8931 1.0369,3.1841 1.4409,2.5941 C1.8459,2.0061 2.3849,1.5601 3.0589,1.2581 C3.7329,0.9571 4.4739,0.8061 5.2819,0.8061 C6.1849,0.8061 7.0179,1.0121 7.7829,1.4261 C8.5469,1.8381 9.1669,2.4641 9.6419,3.3021 L7.1809,4.8051 C6.9759,4.3831 6.6909,4.0481 6.3279,3.7991 C5.9649,3.5501 5.5959,3.4251 5.2209,3.4251 C4.8109,3.4251 4.4709,3.5331 4.2009,3.7501 C3.9319,3.9671 3.7969,4.2511 3.7969,4.6021 C3.7969,4.9011 3.8969,5.1531 4.0959,5.3581 C4.2949,5.5631 4.5429,5.7321 4.8379,5.8631 C5.1339,5.9961 5.5609,6.1551 6.1169,6.3431 C6.9609,6.6241 7.6519,6.9041 8.1909,7.1821 C8.7309,7.4611 9.1959,7.8781 9.5889,8.4351 C9.9819,8.9911 10.1779,9.7211 10.1779,10.6231 C10.1779,11.5081 9.9829,12.2791 9.5929,12.9391 C9.2039,13.5981 8.6509,14.1061 7.9369,14.4641 C7.2219,14.8211 6.3839,15.0001 5.4229,15.0001 C4.5499,15.0001 3.7299,14.8461 2.9619,14.5391" id="Fill-1" fill="#1C1C1C" mask="url(#mask-2)"></path>
            </g>
            <path d="M18.6855,6.8183 C19.2475,6.8183 19.6595,6.8123 19.9205,6.8003 C20.1815,6.7893 20.4005,6.7593 20.5795,6.7133 C20.7585,6.6663 20.9065,6.5873 21.0235,6.4753 C21.1815,6.3293 21.2985,6.1593 21.3745,5.9653 C21.4515,5.7723 21.4895,5.5293 21.4895,5.2363 C21.4895,4.9723 21.4545,4.7553 21.3835,4.5863 C21.3135,4.4163 21.2195,4.2723 21.1025,4.1553 C20.9735,4.0203 20.7895,3.9343 20.5485,3.8953 C20.3085,3.8583 19.9335,3.8393 19.4235,3.8393 L18.6855,3.8393 L17.8245,3.8393 L17.8245,6.8183 L18.6855,6.8183 Z M14.8715,1.2193 L19.7665,1.2193 C20.5345,1.2193 21.1855,1.2813 21.7225,1.4043 C22.2585,1.5273 22.7195,1.7383 23.1065,2.0373 C23.5395,2.3713 23.8725,2.8123 24.1035,3.3603 C24.3355,3.9083 24.4515,4.5533 24.4515,5.2973 C24.4515,6.0423 24.3365,6.6883 24.1085,7.2353 C23.8795,7.7843 23.5455,8.2303 23.1065,8.5763 C22.7195,8.8753 22.2535,9.0933 21.7085,9.2313 C21.1645,9.3693 20.5165,9.4373 19.7665,9.4373 L17.8245,9.4373 L17.8245,15.0183 L14.8715,15.0183 L14.8715,1.2193 Z" id="Fill-4" fill="#1C1C1C"></path>
            <polygon id="Fill-6" fill="#1C1C1C" points="29.1758 1.2197 38.0348 1.2197 38.0348 3.8387 32.1288 3.8387 32.1288 6.8187 37.6928 6.8187 37.6928 9.4377 32.1288 9.4377 32.1288 12.3997 38.4308 12.3997 38.4308 15.0187 29.1758 15.0187"></polygon>
            <polygon id="Fill-8" fill="#1C1C1C" points="63.5688 3.8388 59.4558 3.8388 59.4558 1.2198 70.6348 1.2198 70.6348 3.8388 66.5128 3.8388 66.5128 15.0188 63.5688 15.0188"></polygon>
            <polygon id="Fill-10" fill="#1C1C1C" points="74.9063 1.2197 83.7653 1.2197 83.7653 3.8387 77.8593 3.8387 77.8593 6.8187 83.4233 6.8187 83.4233 9.4377 77.8593 9.4377 77.8593 12.3997 84.1613 12.3997 84.1613 15.0187 74.9063 15.0187"></polygon>
            <g id="Group-14" transform="translate(89.000000, 1.194300)">
                <mask id="mask-4" fill="white">
                    <use xlink:href="#path-3"></use>
                </mask>
                <g id="Clip-13"></g>
                <path d="M4.1445,5.624 C4.7065,5.624 5.1185,5.618 5.3795,5.606 C5.6405,5.595 5.8595,5.565 6.0385,5.519 C6.2175,5.472 6.3655,5.393 6.4825,5.281 C6.6405,5.135 6.7575,4.965 6.8335,4.771 C6.9105,4.578 6.9485,4.335 6.9485,4.042 C6.9485,3.778 6.9135,3.561 6.8425,3.392 C6.7725,3.222 6.6785,3.078 6.5615,2.961 C6.4325,2.826 6.2485,2.74 6.0075,2.701 C5.7675,2.664 5.3925,2.645 4.8825,2.645 L4.1445,2.645 L3.2835,2.645 L3.2835,5.624 L4.1445,5.624 Z M7.7835,13.824 L4.6195,8.243 L3.2835,8.243 L3.2835,13.824 L0.3305,13.824 L0.3305,0.025 L4.6275,0.025 C5.6065,0.025 6.4105,0.087 7.0405,0.21 C7.6705,0.333 8.1785,0.544 8.5655,0.843 C8.9985,1.177 9.3315,1.618 9.5625,2.166 C9.7945,2.714 9.9105,3.359 9.9105,4.103 C9.9105,4.848 9.7955,5.494 9.5675,6.041 C9.3385,6.59 9.0045,7.036 8.5655,7.382 C8.3255,7.569 8.0645,7.716 7.7835,7.821 L7.7835,8.146 L11.2905,13.824 L7.7835,13.824 Z" id="Fill-12" fill="#1C1C1C" mask="url(#mask-4)"></path>
            </g>
            <path d="M45.7964,6.5185 C46.3914,5.0555 47.8244,4.0185 49.4994,4.0185 C51.1734,4.0185 52.6064,5.0555 53.2014,6.5185 L56.3344,6.5185 C55.6464,3.3735 52.8494,1.0185 49.4994,1.0185 C46.1484,1.0185 43.3514,3.3735 42.6644,6.5185 L45.7964,6.5185 Z" id="Fill-15" fill="#1C1C1C"></path>
            <path d="M53.2017,9.5185 C52.6067,10.9815 51.1737,12.0185 49.4987,12.0185 C47.8247,12.0185 46.3917,10.9815 45.7967,9.5185 L42.6637,9.5185 C43.3517,12.6635 46.1487,15.0185 49.4987,15.0185 C52.8497,15.0185 55.6467,12.6635 56.3337,9.5185 L53.2017,9.5185 Z" id="Fill-17" fill="#1C1C1C"></path>
        </g>
    </g>
</svg>